<svg width="576" height="512" viewBox="0 0 576 512" fill="none" xmlns="http://www.w3.org/2000/svg">
<g clip-path="url(#clip0_0_1)">
<path d="M277.4 4.002C283.5 -1.334 292.5 -1.334 298.6 4.002L570.6 244C577.2 249.8 577.8 259.1 571.1 266.6C566.2 273.2 556 273.8 549.4 267.1L512 234.1V432C512 476.2 476.2 512 432 512H144C99.82 512 64 476.2 64 432V234.1L26.59 267.1C19.96 273.8 9.849 273.2 4.003 266.6C-1.844 259.1 -1.212 249.8 5.414 244L277.4 4.002ZM96 206.7V432C96 458.5 117.5 480 144 480H432C458.5 480 480 458.5 480 432V206.7L288 37.34L96 206.7Z" fill="black"/>
<path d="M162.568 372V284.727H214.898V294.102H173.136V323.591H210.977V332.966H173.136V372H162.568Z" fill="black"/>
<path d="M281.918 382.227C273.225 382.227 265.54 381.034 258.864 378.648C252.188 376.29 246.577 372.81 242.032 368.207C237.486 363.605 234.049 357.966 231.719 351.29C229.39 344.614 228.225 336.972 228.225 328.364C228.225 320.04 229.404 312.597 231.762 306.034C234.148 299.472 237.6 293.903 242.117 289.33C246.663 284.727 252.174 281.219 258.651 278.804C265.157 276.389 272.515 275.182 280.725 275.182C288.708 275.182 295.697 276.489 301.691 279.102C307.714 281.688 312.742 285.196 316.776 289.628C320.839 294.031 323.879 298.989 325.896 304.5C327.941 310.011 328.964 315.693 328.964 321.545C328.964 325.665 328.765 329.841 328.367 334.074C327.969 338.307 327.131 342.199 325.853 345.75C324.575 349.273 322.6 352.114 319.93 354.273C317.288 356.432 313.708 357.511 309.191 357.511C307.202 357.511 305.015 357.199 302.629 356.574C300.242 355.949 298.126 354.912 296.279 353.463C294.433 352.014 293.339 350.068 292.998 347.625H292.487C291.805 349.273 290.754 350.835 289.333 352.313C287.941 353.79 286.109 354.969 283.836 355.849C281.592 356.73 278.85 357.114 275.612 357C271.918 356.858 268.665 356.034 265.853 354.528C263.04 352.994 260.683 350.92 258.779 348.307C256.904 345.665 255.484 342.611 254.518 339.145C253.58 335.651 253.111 331.886 253.111 327.852C253.111 324.017 253.68 320.509 254.816 317.327C255.952 314.145 257.529 311.361 259.546 308.974C261.592 306.588 263.978 304.685 266.705 303.264C269.461 301.815 272.43 300.92 275.612 300.58C278.452 300.295 281.038 300.423 283.367 300.963C285.697 301.474 287.614 302.256 289.12 303.307C290.626 304.33 291.577 305.466 291.975 306.716H292.487V301.943H301.521V340.466C301.521 342.852 302.188 344.955 303.523 346.773C304.859 348.591 306.805 349.5 309.362 349.5C312.259 349.5 314.475 348.506 316.009 346.517C317.572 344.528 318.637 341.46 319.205 337.313C319.802 333.165 320.1 327.852 320.1 321.375C320.1 317.568 319.575 313.818 318.523 310.125C317.501 306.403 315.938 302.923 313.836 299.685C311.762 296.446 309.134 293.591 305.952 291.119C302.771 288.648 299.035 286.716 294.745 285.324C290.484 283.903 285.64 283.193 280.214 283.193C273.538 283.193 267.558 284.23 262.273 286.304C257.018 288.349 252.543 291.347 248.85 295.295C245.185 299.216 242.387 303.989 240.455 309.614C238.552 315.21 237.6 321.574 237.6 328.705C237.6 335.949 238.552 342.384 240.455 348.009C242.387 353.634 245.228 358.378 248.978 362.241C252.756 366.105 257.43 369.045 262.998 371.063C268.566 373.051 274.986 374.045 282.259 374.045C285.384 374.045 288.467 373.747 291.506 373.151C294.546 372.554 297.231 371.901 299.56 371.19C301.89 370.48 303.566 369.955 304.589 369.614L306.975 377.455C305.214 378.193 302.913 378.932 300.072 379.67C297.259 380.409 294.248 381.02 291.038 381.503C287.856 381.986 284.816 382.227 281.918 382.227ZM276.975 348.307C280.782 348.307 283.864 347.54 286.222 346.006C288.58 344.472 290.299 342.156 291.379 339.06C292.458 335.963 292.998 332.057 292.998 327.341C292.998 322.568 292.401 318.847 291.208 316.176C290.015 313.506 288.254 311.631 285.924 310.551C283.594 309.472 280.725 308.932 277.316 308.932C274.077 308.932 271.308 309.784 269.006 311.489C266.734 313.165 264.986 315.409 263.765 318.222C262.572 321.006 261.975 324.045 261.975 327.341C261.975 330.977 262.458 334.401 263.424 337.611C264.39 340.793 265.967 343.378 268.154 345.366C270.342 347.327 273.282 348.307 276.975 348.307Z" fill="black"/>
<path d="M345.381 372V284.727H355.949V323.591H402.483V284.727H413.051V372H402.483V332.966H355.949V372H345.381Z" fill="black"/>
</g>
<defs>
<clipPath id="clip0_0_1">
<rect width="576" height="512" fill="white"/>
</clipPath>
</defs>
</svg>
